<?xml version="1.0" standalone="no"?>
<!DOCTYPE svg PUBLIC "-//W3C//DTD SVG 20010904//EN"
 "http://www.w3.org/TR/2001/REC-SVG-20010904/DTD/svg10.dtd">
<svg version="1.0" xmlns="http://www.w3.org/2000/svg"
 width="538.000000pt" height="538.000000pt" viewBox="0 0 538.000000 538.000000"
 preserveAspectRatio="xMidYMid meet">
<metadata>
Created by potrace 1.11, written by Peter Selinger 2001-2013
</metadata>
<g transform="translate(0.000000,538.000000) scale(0.100000,-0.100000)"
fill="#000000" stroke="none">
<path d="M960 4693 c-138 -150 -157 -199 -139 -347 18 -147 131 -428 238 -592
l40 -61 -39 -12 c-34 -10 -106 -27 -417 -98 -40 -9 -73 -19 -73 -22 0 -3 20
-19 45 -36 92 -62 374 -270 375 -276 0 -3 -62 -31 -137 -61 -493 -198 -573
-232 -566 -239 8 -8 57 -23 627 -196 154 -46 286 -88 293 -92 11 -6 -7 -38
-75 -132 -128 -180 -400 -563 -510 -719 -53 -74 -113 -159 -134 -187 -58 -79
-58 -83 -1 -68 52 14 503 145 882 256 129 38 236 67 239 65 6 -6 -101 -507
-175 -818 -8 -36 -14 -71 -11 -78 2 -6 34 10 75 39 39 27 190 124 335 217 145
92 306 196 357 230 52 35 96 62 97 61 1 -1 10 -81 18 -177 30 -322 64 -614 77
-648 17 -45 60 -52 309 -52 236 -1 266 4 298 43 11 13 36 200 62 457 6 63 16
148 21 188 5 40 9 92 9 115 0 23 4 48 9 55 9 15 201 -105 635 -395 179 -119
227 -148 223 -130 -34 146 -186 891 -183 894 1 1 114 -32 251 -73 138 -42 324
-97 415 -124 91 -26 236 -69 323 -95 88 -25 161 -44 164 -41 3 3 -93 144 -214
313 -454 638 -563 791 -563 796 0 5 52 21 335 106 94 28 231 69 305 92 74 22
173 52 220 66 47 13 89 28 93 32 4 4 -153 72 -350 151 -197 78 -364 146 -371
149 -13 7 40 48 345 266 79 57 92 75 53 75 -10 0 -45 6 -77 14 -32 8 -138 33
-236 56 l-178 42 18 26 c85 129 156 274 206 417 67 194 74 323 22 411 -30 51
-161 191 -150 159 25 -68 27 -101 8 -155 -27 -81 -62 -102 -373 -225 -149 -60
-272 -106 -274 -104 -2 2 -12 82 -22 177 -10 94 -22 172 -28 172 -5 0 -95 -57
-200 -127 -105 -71 -194 -129 -198 -131 -4 -2 -8 12 -8 32 0 45 -10 45 -97 6
-36 -17 -67 -29 -68 -28 -1 2 -7 18 -14 36 -16 38 1 36 -230 16 -164 -14 -198
-14 -369 0 -103 9 -193 16 -200 16 -6 0 -19 -15 -28 -32 -9 -18 -18 -34 -19
-36 -1 -1 -31 11 -66 28 -35 16 -69 30 -76 30 -6 0 -15 -16 -20 -35 l-8 -35
-195 130 c-107 72 -197 130 -201 130 -9 0 -14 -35 -34 -209 -8 -74 -17 -136
-19 -138 -4 -4 -129 43 -395 150 -163 66 -223 106 -247 164 -17 39 -18 116 -3
144 20 39 3 40 -31 2z m1484 -552 c-2 -2 -11 2 -19 9 -13 11 -13 15 -3 21 8 5
15 2 19 -9 4 -9 5 -19 3 -21z m49 -41 c4 -15 0 -20 -14 -20 -21 0 -26 25 -6
33 6 3 13 6 13 6 1 1 4 -8 7 -19z m50 -46 c-9 -15 -19 -21 -21 -15 -4 13 16
41 29 41 5 0 2 -12 -8 -26z m617 -50 c0 -29 21 -87 34 -96 7 -5 3 -17 -11 -36
-13 -17 -18 -34 -13 -42 6 -9 10 -8 18 5 8 16 11 14 17 -14 4 -20 2 -37 -5
-46 -10 -12 -10 -15 1 -16 12 0 12 -2 0 -6 -11 -4 -8 -10 10 -24 13 -10 19
-19 13 -19 -16 0 -4 -60 12 -60 8 0 21 -15 29 -32 l15 -33 -5 42 c-3 23 -1 44
5 48 11 7 32 -64 34 -114 1 -30 -4 -36 -52 -63 -42 -24 -55 -28 -67 -18 -11 9
-22 9 -50 -1 -19 -7 -35 -16 -35 -20 0 -4 -12 -9 -27 -11 -19 -2 -29 -10 -33
-28 l-6 -25 -34 34 c-36 36 -61 45 -72 27 -5 -7 -8 -6 -8 4 0 13 -1 13 -11 0
-8 -12 -10 -12 -7 -1 2 8 31 29 64 47 32 18 80 44 106 58 26 14 52 26 57 26 5
0 25 14 43 31 18 18 27 28 19 24 -24 -14 -91 -23 -97 -14 -3 5 2 9 10 9 26 0
26 17 -1 44 -30 31 -41 32 -50 9 -4 -10 -15 -26 -24 -36 -22 -24 -30 -55 -17
-64 6 -3 8 -2 5 4 -3 5 4 9 16 8 12 -1 28 2 35 8 18 14 15 -8 -4 -27 -17 -18
-39 -22 -29 -6 8 13 -1 13 -28 -2 -37 -22 -63 -42 -65 -53 -4 -19 -27 -10 -27
10 0 13 6 19 17 17 20 -3 34 21 36 64 2 21 -3 31 -13 31 -8 0 -12 -4 -9 -9 3
-5 3 -21 -1 -36 -6 -23 -8 -24 -16 -10 -6 10 -5 27 3 45 6 15 12 31 12 34 3
16 75 100 100 115 28 17 29 16 22 -2 -6 -15 -5 -17 5 -6 7 6 21 12 32 12 13 0
18 6 15 23 -2 18 -9 22 -32 20 -18 -1 -35 5 -43 15 -11 12 -16 14 -19 5 -8
-18 -35 -16 -28 1 8 21 -77 27 -93 7 -11 -14 -12 -14 -13 -1 0 13 -2 13 -9 0
-6 -8 -7 -18 -5 -22 3 -5 -2 -11 -10 -14 -9 -3 -13 -10 -10 -15 3 -5 -3 -6
-13 -2 -17 6 -17 5 1 -15 10 -12 23 -19 29 -15 7 4 8 0 4 -11 -6 -14 -3 -17 9
-12 8 3 24 0 35 -7 18 -13 18 -14 -4 -38 -12 -13 -21 -26 -19 -28 1 -3 -4 -6
-13 -7 -8 -1 -17 2 -21 7 -3 5 -13 5 -23 -1 -14 -7 -23 -4 -37 11 -14 16 -18
37 -18 102 l-1 82 -98 0 c-77 0 -97 3 -97 14 0 11 -4 10 -19 -3 -11 -10 -25
-15 -30 -11 -6 3 -11 0 -12 -7 0 -10 -2 -10 -6 0 -3 8 -26 12 -66 11 -39 0
-55 -3 -43 -8 19 -7 19 -8 0 -15 -10 -4 -35 -9 -54 -12 -19 -2 -37 -9 -41 -16
-9 -13 -40 -3 -37 13 2 6 -19 18 -45 27 -31 10 -43 18 -35 23 6 4 16 5 20 3 4
-3 5 3 1 12 -5 13 -3 16 10 11 11 -4 17 -1 17 9 0 12 4 13 21 3 16 -8 20 -8
14 0 -4 8 6 11 32 11 54 -1 134 8 163 19 31 10 88 5 107 -10 8 -7 13 -8 13 -1
0 10 45 17 153 24 26 2 47 -1 47 -6 0 -5 28 -6 63 -2 44 4 70 2 89 -8 16 -9
44 -12 71 -9 31 3 48 0 53 -9 13 -20 22 32 12 62 -7 18 -5 27 7 36 9 7 13 19
9 30 -4 12 3 9 20 -11 14 -16 26 -39 26 -51z m-435 6 c3 -5 -1 -10 -10 -10 -9
0 -13 5 -10 10 3 6 8 10 10 10 2 0 7 -4 10 -10z m30 -224 c4 -24 4 -57 1 -73
-3 -15 -13 -91 -21 -167 -11 -105 -19 -144 -32 -156 -16 -15 -19 -15 -35 0
-14 13 -18 40 -22 136 -3 66 -7 127 -10 135 -10 30 -26 95 -26 107 0 19 30 14
31 -5 4 -75 13 -130 22 -139 4 -4 7 -16 7 -27 0 -19 1 -20 20 -2 11 10 20 26
20 35 0 9 6 22 12 28 9 9 10 15 2 20 -6 4 -15 22 -19 40 -5 25 -3 33 10 38 9
4 14 13 11 20 -3 7 -1 16 4 19 5 3 7 12 3 20 -3 8 0 15 5 15 6 0 14 -20 17
-44z m-330 9 c0 -14 6 -20 20 -19 15 1 20 -5 20 -23 0 -12 -4 -23 -9 -23 -6 0
-5 -5 2 -12 20 -20 13 -32 -8 -13 -11 10 -20 24 -20 32 0 7 -4 13 -10 13 -5 0
-10 5 -10 11 0 6 -7 17 -15 25 -22 22 -18 36 8 32 14 -2 22 -10 22 -23z m-185
-35 c0 -13 7 -20 20 -20 17 0 18 -3 8 -19 -13 -21 -68 -56 -68 -44 0 4 -7 0
-14 -10 -26 -33 -29 2 -6 59 16 38 28 54 41 54 12 0 19 -7 19 -20z m1263 -41
c27 -81 21 -117 -16 -103 -17 6 -43 126 -32 143 14 24 33 8 48 -40z m-942 18
c-10 -9 -11 -8 -5 6 3 10 9 15 12 12 3 -3 0 -11 -7 -18z m-223 1 c7 -7 12 -20
12 -31 0 -10 5 -15 10 -12 6 3 10 2 10 -3 0 -17 -40 -21 -55 -5 -20 20 -19 29
2 12 15 -13 15 -12 5 8 -21 38 -11 58 16 31z m352 2 c0 -5 -4 -10 -10 -10 -5
0 -10 5 -10 10 0 6 5 10 10 10 6 0 10 -4 10 -10z m-160 -10 c0 -5 -2 -10 -4
-10 -3 0 -8 5 -11 10 -3 6 -1 10 4 10 6 0 11 -4 11 -10z m138 -25 c-3 -3 -9 2
-12 12 -6 14 -5 15 5 6 7 -7 10 -15 7 -18z m-527 -56 c41 -22 79 -45 84 -51
16 -16 -37 2 -59 21 -18 15 -19 15 -13 -1 4 -10 2 -18 -3 -18 -6 0 -10 6 -10
14 0 8 -19 28 -42 45 -56 41 -45 39 43 -10z m576 15 c-3 -3 -12 -4 -19 -1 -8
3 -5 6 6 6 11 1 17 -2 13 -5z m148 -63 c-5 -5 -55 50 -55 61 0 4 13 -6 29 -24
16 -18 28 -35 26 -37z m-744 -44 c-10 -9 -11 -8 -5 6 3 10 9 15 12 12 3 -3 0
-11 -7 -18z m334 -84 c11 -7 14 -13 8 -13 -7 0 -15 5 -18 10 -10 16 -28 12
-21 -5 3 -8 1 -15 -5 -15 -6 0 -8 -9 -4 -20 8 -24 5 -24 -30 -6 -15 8 -22 17
-16 21 18 11 12 28 -8 22 -14 -3 -18 -1 -14 9 3 8 0 14 -6 14 -6 0 -11 5 -11
12 0 6 8 4 19 -6 26 -24 47 -17 28 8 -9 12 -29 20 -55 22 -45 3 -62 10 -62 25
0 6 5 7 10 4 6 -3 10 -1 10 5 0 10 123 -51 175 -87z m404 35 c-17 -41 -30 -56
-48 -50 -11 4 -11 6 0 13 11 7 10 11 -6 23 -12 9 -15 15 -7 16 7 0 10 5 6 11
-4 7 4 20 17 30 20 15 26 16 38 4 12 -12 12 -19 0 -47z m-753 5 c-10 -10 -19
5 -10 18 6 11 8 11 12 0 2 -7 1 -15 -2 -18z m1 -30 c47 -23 72 -41 69 -49 -3
-8 2 -18 11 -23 12 -6 -2 -11 -52 -16 -67 -8 -69 -7 -92 21 -24 31 -38 77 -28
94 9 14 9 14 92 -27z m152 20 c9 -16 10 -16 11 -1 0 11 6 15 19 11 12 -3 17
-11 14 -20 -4 -10 -8 -11 -13 -3 -5 8 -9 7 -13 -4 -6 -14 -10 -15 -29 -4 -13
7 -25 14 -27 15 -6 3 10 23 19 23 5 0 14 -8 19 -17z m1102 5 c6 -66 -8 -96
-58 -118 -43 -19 -47 -19 -64 -4 -12 11 -28 15 -46 11 -25 -5 -26 -4 -10 8 10
7 16 19 15 26 -2 8 27 29 67 51 75 40 94 45 96 26z m-480 -67 c-16 -12 -20
-21 -12 -25 6 -4 11 -12 11 -18 0 -6 -7 -5 -17 3 -17 13 -17 12 -2 -6 9 -11
14 -26 12 -32 -3 -7 2 -13 11 -13 10 0 13 -6 10 -15 -4 -8 -1 -15 5 -15 6 0
11 5 11 10 0 6 8 10 18 10 13 -1 11 -6 -11 -25 -32 -28 -47 -32 -47 -11 0 7
-15 21 -32 30 -18 8 -27 16 -20 16 14 0 16 19 3 39 -8 13 -12 13 -27 0 -14
-11 -16 -11 -13 0 3 7 29 26 59 42 63 33 75 36 41 10z m-326 -29 c-3 -3 -11 0
-18 7 -9 10 -8 11 6 5 10 -3 15 -9 12 -12z m1025 -16 c0 -7 -11 -30 -25 -50
-14 -20 -25 -41 -25 -46 0 -14 -99 -90 -145 -111 -22 -10 -59 -19 -82 -19 -41
0 -43 2 -43 28 0 25 6 30 40 41 22 7 44 9 49 7 5 -3 12 1 15 10 4 10 12 14 23
10 9 -4 20 -1 24 5 4 7 29 19 55 28 42 14 52 22 73 64 23 46 41 61 41 33z
m-1095 -46 c-3 -5 -11 -10 -16 -10 -6 0 -7 5 -4 10 3 6 11 10 16 10 6 0 7 -4
4 -10z m-30 -20 c3 -5 2 -10 -4 -10 -5 0 -13 5 -16 10 -3 6 -2 10 4 10 5 0 13
-4 16 -10z m345 0 c0 -5 -5 -10 -11 -10 -5 0 -7 5 -4 10 3 6 8 10 11 10 2 0 4
-4 4 -10z m1032 -6 c-28 -19 -153 -80 -182 -89 -22 -6 -20 -3 10 20 40 30 107
65 127 65 7 0 13 3 13 8 0 4 12 8 26 8 24 2 25 1 6 -12z m-1927 -74 c10 -11
16 -20 13 -20 -3 0 -13 9 -23 20 -10 11 -16 20 -13 20 3 0 13 -9 23 -20z m195
-41 c0 -14 -13 -10 -40 11 l-25 20 33 -11 c17 -6 32 -15 32 -20z m1520 7 c0
-15 -109 -80 -118 -71 -8 8 20 35 29 29 5 -3 12 2 15 11 4 9 12 14 19 11 6 -2
18 4 26 15 16 23 29 25 29 5z m-1800 -36 c13 -8 13 -10 -2 -10 -9 0 -20 5 -23
10 -8 13 5 13 25 0z m1666 -47 c-2 -5 -26 -19 -52 -33 -26 -14 -56 -33 -66
-43 -10 -10 -32 -20 -48 -24 -17 -3 -30 -9 -30 -13 0 -4 -9 -10 -20 -13 -29
-7 -25 12 5 23 18 7 25 16 24 32 -4 48 0 53 38 52 21 -1 45 -3 53 -5 9 -2 14
2 12 10 -3 12 0 12 12 1 13 -10 20 -10 38 3 25 17 42 22 34 10z m-1535 -34
l24 -20 -30 17 c-39 24 -40 24 -28 24 6 0 21 -9 34 -21z m813 -31 c3 -12 -2
-18 -12 -19 -10 0 -12 -3 -5 -5 7 -3 10 -11 7 -18 -3 -7 9 -25 25 -39 38 -32
40 -51 6 -45 -36 7 -31 -1 11 -18 30 -13 38 -13 45 -2 7 10 9 9 9 -5 0 -10 -7
-20 -15 -23 -8 -4 -15 -17 -15 -31 0 -20 4 -23 23 -18 20 5 20 5 -3 -9 -19
-11 -57 -15 -147 -16 -136 0 -153 3 -146 29 3 13 -3 20 -19 25 -13 4 -18 10
-12 12 7 3 9 15 6 27 -3 12 -2 19 3 15 4 -4 14 0 22 8 15 14 33 11 33 -6 0 -5
-8 -7 -17 -3 -12 3 -10 0 5 -12 14 -10 29 -14 40 -9 33 14 50 13 56 -2 13 -35
26 2 26 77 0 64 3 79 15 79 17 0 20 16 5 25 -5 3 -10 12 -10 20 0 20 57 -14
64 -37z m-444 -1 c0 -5 -4 -5 -10 -2 -5 3 -10 14 -10 23 0 15 2 15 10 2 5 -8
10 -19 10 -23z m-366 -9 c37 -24 46 -34 32 -36 -10 -2 -26 5 -37 16 -10 11
-27 23 -39 27 -11 3 -20 11 -20 16 0 15 10 11 64 -23z m1536 0 c0 -17 -3 -19
-9 -10 -4 8 -11 13 -15 13 -23 -3 -30 0 -16 9 25 16 40 11 40 -12z m-1392 -22
c2 -9 14 -19 27 -22 13 -3 32 -15 42 -27 18 -20 17 -20 -2 -13 -20 7 -145 75
-145 79 0 1 17 2 37 1 27 -1 39 -6 41 -18z m1303 -9 c-12 -15 -2 -28 29 -40 8
-3 -16 -6 -55 -6 l-70 0 30 25 c47 39 94 54 66 21z m434 -32 c0 -25 -1 -25
-85 -24 -47 1 -77 3 -67 6 9 2 17 8 17 13 0 13 31 17 61 9 16 -4 36 -2 50 6
13 7 24 13 24 14 0 1 0 -10 0 -24z m-2075 -5 c8 -16 8 -20 -4 -20 -27 0 -45
12 -39 26 8 20 31 17 43 -6z m-144 -11 c9 -15 -23 -10 -35 5 -10 12 -8 13 9 9
11 -3 23 -9 26 -14z m201 6 c0 -18 -19 -15 -25 3 -2 7 3 12 11 12 7 0 14 -7
14 -15z m58 6 c-3 -5 3 -12 12 -14 14 -4 13 -5 -4 -6 -23 -1 -30 9 -16 22 9
10 15 8 8 -2z m1615 5 c0 -3 -4 -8 -10 -11 -5 -3 -10 -1 -10 4 0 6 5 11 10 11
6 0 10 -2 10 -4z m100 0 c0 -11 -19 -15 -25 -6 -3 5 1 10 9 10 9 0 16 -2 16
-4z m70 -17 c0 -4 -7 -6 -15 -3 -8 4 -15 10 -15 15 0 4 7 6 15 3 8 -4 15 -10
15 -15z m-440 -3 c0 -2 -7 -7 -16 -10 -8 -3 -12 -2 -9 4 6 10 25 14 25 6z
m-250 -46 c-20 -13 -43 -13 -35 0 3 6 16 10 28 10 18 0 19 -2 7 -10z m-885
-160 c14 -5 24 -14 21 -19 -4 -5 0 -12 6 -14 7 -3 -3 -6 -22 -6 -31 0 -33 1
-15 11 19 11 18 12 -10 24 -35 15 -18 19 20 4z m1259 -4 c-12 -9 -23 -11 -30
-5 -6 5 -15 5 -19 1 -5 -4 -5 -1 -1 6 4 6 21 12 39 12 29 0 30 -1 11 -14z m73
8 c-3 -3 -12 -4 -19 -1 -8 3 -5 6 6 6 11 1 17 -2 13 -5z m-118 -65 c31 15 46
7 46 -24 0 -32 38 -80 55 -70 6 4 10 -2 10 -11 0 -10 8 -27 18 -38 l17 -20
-30 19 c-57 36 -104 72 -100 77 3 3 -1 5 -8 5 -22 0 -77 45 -77 63 0 27 11 30
33 10 13 -12 26 -16 36 -11z m-1199 -33 c0 -2 -18 -15 -40 -30 -22 -14 -40
-21 -40 -16 0 6 -4 8 -10 5 -5 -3 -10 -1 -10 4 0 10 29 16 53 12 4 0 7 5 7 12
0 7 9 13 20 14 11 1 20 0 20 -1z m-98 -68 c-13 -15 -72 -51 -72 -44 0 5 71 56
79 56 2 0 -1 -6 -7 -12z m428 -135 c0 -7 -39 17 -46 28 -3 6 5 3 20 -6 14 -10
26 -19 26 -22z m-724 -65 c-10 -6 -22 -6 -26 -2 -5 5 3 10 18 11 22 1 24 0 8
-9z m2104 -88 c0 -5 -4 -10 -9 -10 -6 0 -13 5 -16 10 -3 6 1 10 9 10 9 0 16
-4 16 -10z m-906 -1346 c9 -23 7 -36 -3 -30 -12 8 -21 46 -11 46 4 0 11 -7 14
-16z m-29 -34 c3 -5 1 -10 -4 -10 -6 0 -11 5 -11 10 0 6 2 10 4 10 3 0 8 -4
11 -10z"/>
<path d="M2858 3933 c7 -3 16 -2 19 1 4 3 -2 6 -13 5 -11 0 -14 -3 -6 -6z"/>
<path d="M2368 3863 c6 -2 18 -2 25 0 6 3 1 5 -13 5 -14 0 -19 -2 -12 -5z"/>
<path d="M2810 3852 c0 -15 7 -19 32 -20 20 0 27 2 19 7 -7 5 -11 12 -9 17 1
5 -7 10 -19 12 -17 3 -23 -2 -23 -16z"/>
<path d="M3117 3549 c7 -7 15 -10 18 -7 3 3 -2 9 -12 12 -14 6 -15 5 -6 -5z"/>
<path d="M3000 3471 c0 -5 6 -13 13 -19 10 -8 13 -6 14 9 1 10 -5 19 -13 19
-8 0 -14 -4 -14 -9z"/>
<path d="M3040 3476 c0 -2 7 -6 15 -10 8 -3 15 -1 15 4 0 6 -7 10 -15 10 -8 0
-15 -2 -15 -4z"/>
<path d="M3245 2700 c3 -5 8 -10 11 -10 2 0 4 5 4 10 0 6 -5 10 -11 10 -5 0
-7 -4 -4 -10z"/>
</g>
</svg>
